custom-analysis
version=1
nRows=6
nColumns=98
inDegrees=no

This file contains tibia displacement and acting force.

Units are S.I. units (seconds, meters, Newtons, ...)
Angles are in degrees.

endheader
time	APT	SIT	knee_angle	aACL_R_force	pACL_R_force	aPCL_R_force	pPCL_R_force	aMCL_R_force	mMCL_R_force	pMCL_R_force	aLCL_R_force	mLCL_R_force	pLCL_R_force	aPCL_L_force	pPCL_L_force	aMCL_L_force	aLCL_L_force	aACL_R_length	pACL_R_length	aPCL_R_length	pPCL_R_length	aMCL_R_length	mMCL_R_length	pMCL_R_length	aLCL_R_length	mLCL_R_length	pLCL_R_length	aPCL_L_length	pPCL_L_length	aMCL_L_length	aLCL_L_length	aACL_R_strain	pACL_R_strain	aPCL_R_strain	pPCL_R_strain	aMCL_R_strain	mMCL_R_strain	pMCL_R_strain	aLCL_R_strain	mLCL_R_strain	pLCL_R_strain	aPCL_L_strain	pPCL_L_strain	aMCL_L_strain	aLCL_L_strain	femur_lat_meniscii_r.femur_lat_r.force.X	femur_lat_meniscii_r.femur_lat_r.force.Y	femur_lat_meniscii_r.femur_lat_r.force.Z	femur_lat_meniscii_r.femur_lat_r.torque.X	femur_lat_meniscii_r.femur_lat_r.torque.Y	femur_lat_meniscii_r.femur_lat_r.torque.Z	femur_lat_meniscii_r.meniscus_lat_r.force.X	femur_lat_meniscii_r.meniscus_lat_r.force.Y	femur_lat_meniscii_r.meniscus_lat_r.force.Z	femur_lat_meniscii_r.meniscus_lat_r.torque.X	femur_lat_meniscii_r.meniscus_lat_r.torque.Y	femur_lat_meniscii_r.meniscus_lat_r.torque.Z	femur_med_meniscii_r.femur_med_r.force.X	femur_med_meniscii_r.femur_med_r.force.Y	femur_med_meniscii_r.femur_med_r.force.Z	femur_med_meniscii_r.femur_med_r.torque.X	femur_med_meniscii_r.femur_med_r.torque.Y	femur_med_meniscii_r.femur_med_r.torque.Z	femur_med_meniscii_r.meniscus_med_r.force.X	femur_med_meniscii_r.meniscus_med_r.force.Y	femur_med_meniscii_r.meniscus_med_r.force.Z	femur_med_meniscii_r.meniscus_med_r.torque.X	femur_med_meniscii_r.meniscus_med_r.torque.Y	femur_med_meniscii_r.meniscus_med_r.torque.Z	femur_med_tibia_r.tibia_upper_r.force.X	femur_med_tibia_r.tibia_upper_r.force.Y	femur_med_tibia_r.tibia_upper_r.force.Z	femur_med_tibia_r.tibia_upper_r.torque.X	femur_med_tibia_r.tibia_upper_r.torque.Y	femur_med_tibia_r.tibia_upper_r.torque.Z	femur_med_tibia_r.femur_med_r.force.X	femur_med_tibia_r.femur_med_r.force.Y	femur_med_tibia_r.femur_med_r.force.Z	femur_med_tibia_r.femur_med_r.torque.X	femur_med_tibia_r.femur_med_r.torque.Y	femur_med_tibia_r.femur_med_r.torque.Z	femur_lat_tibia_r.tibia_upper_r.force.X	femur_lat_tibia_r.tibia_upper_r.force.Y	femur_lat_tibia_r.tibia_upper_r.force.Z	femur_lat_tibia_r.tibia_upper_r.torque.X	femur_lat_tibia_r.tibia_upper_r.torque.Y	femur_lat_tibia_r.tibia_upper_r.torque.Z	femur_lat_tibia_r.femur_lat_r.force.X	femur_lat_tibia_r.femur_lat_r.force.Y	femur_lat_tibia_r.femur_lat_r.force.Z	femur_lat_tibia_r.femur_lat_r.torque.X	femur_lat_tibia_r.femur_lat_r.torque.Y	femur_lat_tibia_r.femur_lat_r.torque.Z	femur_lat_meniscii_force_r	femur_med_meniscii_force_r	femur_lat_tibia_force_r	femur_med_tibia_force_r
      0.07259121	      0.00309057	      0.00277450	     13.55927393	      1.54476583	     -2.18344042	      0.00000000	     27.99676300	      0.00000000	    -15.48420462	    -34.35175983	     -5.37201825	      0.00000000	      0.00000000	      0.00000000	      0.00000000	      0.00000001	      0.00000000	      0.03202374	      0.02593192	      0.03076304	      0.03012973	      0.05652029	      0.06002802	      0.06082788	      0.05676474	      0.05437395	      0.05170932	      0.01525851	      0.01651186	      0.06550154	      0.04489616	      0.03284063	      0.03484715	     -0.01068530	      0.00809461	     -0.05841896	      0.00392221	      0.03575608	      0.01406889	     -0.03452949	     -0.01210062	      0.00000079	     -0.32847694	      0.00000060	     -0.00000086	    150.26567237	    500.10430705	    -40.10523865	      3.85545074	      3.66487243	     60.01751066	   -150.26567237	   -500.10430705	     40.10523865	     13.87323851	     -4.25801317	     -0.98828525	     45.47270534	    705.77378285	     68.75248885	    -10.46990616	     -1.08600552	     17.94353335	    -45.47270534	   -705.77378285	    -68.75248885	    -12.53255883	      0.66999203	      1.54079001	      0.00000000	      0.00000000	      0.00000000	      0.00000000	      0.00000000	      0.00000000	      0.00000000	      0.00000000	      0.00000000	      0.00000000	      0.00000000	      0.00000000	      0.00000000	      0.00000000	      0.00000000	      0.00000000	      0.00000000	      0.00000000	      0.00000000	      0.00000000	      0.00000000	      0.00000000	      0.00000000	      0.00000000	    523.72943433	    710.57111130	      0.00000000	      0.00000000
      0.07404974	      0.00319525	      0.00289196	     14.02477139	      0.35703021	     -3.85438434	      0.00000000	     29.39394850	      0.00000000	    -16.21775401	    -36.15427890	     -7.21428218	      0.00000000	      0.00000000	      0.00000000	      0.00000000	      0.00000001	      0.00000000	      0.03199796	      0.02588978	      0.03083055	      0.03016193	      0.05654123	      0.05999646	      0.06073913	      0.05675345	      0.05433091	      0.05163576	      0.01525851	      0.01651186	      0.06550154	      0.04489616	      0.03200911	      0.03316545	     -0.00851423	      0.00917198	     -0.05807011	      0.00339429	      0.03424487	      0.01386723	     -0.03529372	     -0.01350605	      0.00000079	     -0.32847694	      0.00000060	     -0.00000086	    144.46532432	    487.19461885	    -39.18585958	      3.78477497	      3.52171602	     57.59993817	   -144.46532432	   -487.19461885	     39.18585958	     13.52461135	     -4.08321585	     -0.76702867	     46.91870565	    674.90069279	     66.99908613	    -10.50616831	     -1.13314576	     18.50672380	    -46.91870565	   -674.90069279	    -66.99908613	    -11.97176869	      0.70587410	      1.53835036	      0.00000000	      0.00000000	      0.00000000	      0.00000000	      0.00000000	      0.00000000	      0.00000000	      0.00000000	      0.00000000	      0.00000000	      0.00000000	      0.00000000	      0.00000000	      0.00000000	      0.00000000	      0.00000000	      0.00000000	      0.00000000	      0.00000000	      0.00000000	      0.00000000	      0.00000000	      0.00000000	      0.00000000	    509.67083314	    679.83908950	      0.00000000	      0.00000000
      0.07550827	      0.00330129	      0.00301416	     14.49656881	     -0.94328378	     -5.54967332	      0.00000000	     33.04558961	      0.00000000	    -16.20254862	    -37.24904571	     -7.68123117	      0.00000000	      0.00000000	      0.00000000	      0.00000000	      0.00000001	      0.00000000	      0.03196930	      0.02584466	      0.03089758	      0.03019327	      0.05656164	      0.05996362	      0.06064850	      0.05673923	      0.05428453	      0.05155859	      0.01525851	      0.01651186	      0.06550154	      0.04489616	      0.03108467	      0.03136474	     -0.00635845	      0.01022052	     -0.05772999	      0.00284509	      0.03270159	      0.01361327	     -0.03611718	     -0.01498035	      0.00000079	     -0.32847694	      0.00000060	     -0.00000086	    141.44836979	    494.21468779	    -41.44446756	      4.52600556	      3.43045115	     56.22021946	   -141.44836979	   -494.21468779	     41.44446756	     13.67490375	     -3.96327559	     -0.45501315	     53.08050612	    654.66072969	     70.60576165	    -12.50818170	     -1.28217422	     20.98834259	    -53.08050612	   -654.66072969	    -70.60576165	    -11.44814444	      0.80449271	      1.45080694	      0.00000000	      0.00000000	      0.00000000	      0.00000000	      0.00000000	      0.00000000	      0.00000000	      0.00000000	      0.00000000	      0.00000000	      0.00000000	      0.00000000	      0.00000000	      0.00000000	      0.00000000	      0.00000000	      0.00000000	      0.00000000	      0.00000000	      0.00000000	      0.00000000	      0.00000000	      0.00000000	      0.00000000	    515.72613162	    660.59320668	      0.00000000	      0.00000000
      0.07639730	      0.00336459	      0.00308947	     14.78710674	     -1.17704076	     -6.06842389	      0.00000000	     35.41561746	      0.00000000	    -15.53168525	    -37.21616244	     -7.62776254	      0.00000000	      0.00000000	      0.00000000	      0.00000000	      0.00000001	      0.00000000	      0.03195096	      0.02581643	      0.03094034	      0.03021406	      0.05657515	      0.05994436	      0.06059364	      0.05673092	      0.05425638	      0.05151155	      0.01525851	      0.01651186	      0.06550154	      0.04489616	      0.03049323	      0.03023827	     -0.00498326	      0.01091620	     -0.05750491	      0.00252298	      0.03176755	      0.01346483	     -0.03661697	     -0.01587891	      0.00000079	     -0.32847694	      0.00000060	     -0.00000086	    140.94757168	    489.32642523	    -40.61628220	      4.27845792	      3.42782993	     56.00615224	   -140.94757168	   -489.32642523	     40.61628220	     13.57836065	     -3.95653567	     -0.40860847	     48.76540967	    635.07371110	     68.77916370	    -12.20729806	     -1.19188204	     19.16126359	    -48.76540967	   -635.07371110	    -68.77916370	    -11.14233701	      0.73432320	      1.61883946	      0.00000000	      0.00000000	      0.00000000	      0.00000000	      0.00000000	      0.00000000	      0.00000000	      0.00000000	      0.00000000	      0.00000000	      0.00000000	      0.00000000	      0.00000000	      0.00000000	      0.00000000	      0.00000000	      0.00000000	      0.00000000	      0.00000000	      0.00000000	      0.00000000	      0.00000000	      0.00000000	      0.00000000	    510.83877180	    640.64596859	      0.00000000	      0.00000000
      0.07728632	      0.00342832	      0.00316588	     15.08018014	     -1.84613833	     -6.97911883	      0.00000000	     37.39312609	      0.00000000	    -15.66829193	    -37.98590420	     -8.37417286	      0.00000000	      0.00000000	      0.00000000	      0.00000000	      0.00000001	      0.00000000	      0.03193209	      0.02578763	      0.03098364	      0.03023528	      0.05658920	      0.05992536	      0.06053881	      0.05672223	      0.05422770	      0.05146388	      0.01525851	      0.01651186	      0.06550154	      0.04489616	      0.02988484	      0.02908879	     -0.00359082	      0.01162602	     -0.05727089	      0.00220519	      0.03083376	      0.01330946	     -0.03712631	     -0.01678974	      0.00000079	     -0.32847694	      0.00000060	     -0.00000086	    139.77056628	    484.26058180	    -40.05990457	      4.15336876	      3.40478886	     55.50969231	   -139.77056628	   -484.26058180	     40.05990457	     13.46246220	     -3.92531087	     -0.33965627	     49.83335217	    618.57899651	     70.62090492	    -13.40976371	     -1.19316660	     19.61046058	    -49.83335217	   -618.57899651	    -70.62090492	    -10.72354653	      0.71816239	      1.57974330	      0.00000000	      0.00000000	      0.00000000	      0.00000000	      0.00000000	      0.00000000	      0.00000000	      0.00000000	      0.00000000	      0.00000000	      0.00000000	      0.00000000	      0.00000000	      0.00000000	      0.00000000	      0.00000000	      0.00000000	      0.00000000	      0.00000000	      0.00000000	      0.00000000	      0.00000000	      0.00000000	      0.00000000	    505.61736346	    624.58838455	      0.00000000	      0.00000000
      0.07851386	      0.00351646	      0.00327425	     15.48892197	     -2.81437389	     -8.27332703	      0.00000000	     40.03264198	      0.00000000	    -16.09988500	    -39.26226992	     -9.79337987	      0.00000000	      0.00000000	      0.00000000	      0.00000000	      0.00000001	      0.00000000	      0.03190433	      0.02574616	      0.03104355	      0.03026449	      0.05660826	      0.05989837	      0.06046195	      0.05670851	      0.05418613	      0.05139594	      0.01525851	      0.01651186	      0.06550154	      0.04489616	      0.02898952	      0.02743402	     -0.00166439	      0.01260356	     -0.05695338	      0.00175395	      0.02952503	      0.01306444	     -0.03786432	     -0.01808776	      0.00000079	     -0.32847694	      0.00000060	     -0.00000086	    139.86676150	    484.01249046	    -39.28334532	      3.80889500	      3.41435795	     55.50563005	   -139.86676150	   -484.01249046	     39.28334532	     13.50260188	     -3.93176064	     -0.24369598	     49.39917696	    601.05736692	     70.16951675	    -13.69211920	     -1.17982196	     19.38529273	    -49.39917696	   -601.05736692	    -70.16951675	    -10.35181397	      0.69963385	      1.65477113	      0.00000000	      0.00000000	      0.00000000	      0.00000000	      0.00000000	      0.00000000	      0.00000000	      0.00000000	      0.00000000	      0.00000000	      0.00000000	      0.00000000	      0.00000000	      0.00000000	      0.00000000	      0.00000000	      0.00000000	      0.00000000	      0.00000000	      0.00000000	      0.00000000	      0.00000000	      0.00000000	      0.00000000	    505.34540970	    607.15236810	      0.00000000	      0.00000000
